<?xml version="1.0" encoding="UTF-8"?>
<svg width="351px" height="28px" viewBox="0 0 351 28" version="1.1" xmlns="http://www.w3.org/2000/svg" xmlns:xlink="http://www.w3.org/1999/xlink">
    <!-- Generator: Sketch 49.1 (51147) - http://www.bohemiancoding.com/sketch -->
    <title>Artboard</title>
    <desc>Created with Sketch.</desc>
    <defs></defs>
    <g id="Artboard" stroke="none" stroke-width="1" fill="none" fill-rule="evenodd">
        <g id="logo-EN-c97c00f5453f09b87a310096eaa3e315" fill-rule="nonzero">
            <g id="Group" fill="#383838">
                <path d="M20.4,1 L20.4,5.5 L12.8,5.5 L12.8,26.2 L7.6,26.2 L7.6,5.5 L0,5.5 L0,1 L20.4,1 Z M22.7,26.2 L22.7,1.2 L28,1.2 L28,10.6 L37.7,10.6 L37.7,1 L43,1 L43,26.2 L37.7,26.2 L37.7,15 L28,15 L28,26.2 L22.7,26.2 Z M65.8,5.5 L52.5,5.5 L52.5,11 L64.8,11 L64.8,15 L52.5,15 L52.5,21.5 L66.5,21.5 L66.5,26 L47.5,26 L47.5,1 L65.8,1 L65.8,5.3 L65.8,5.5 Z M78.5,3.7 C80.5,1.7 83.1,0.7 86.2,0.7 C90.4,0.7 93.4,2 95.4,4.7 C96.4,6.3 97,8 97,9.4 L92,9.4 C91.7,8.2 91.3,7.4 90.8,6.7 C89.8,5.7 88.4,5.1 86.6,5.1 C84.6,5.1 83.2,5.9 82.2,7.5 C81,9 80.3,11 80.3,14 C80.3,16.7 80.9,19 82.1,20.3 C83.3,21.7 84.7,22.3 86.5,22.3 C88.3,22.3 89.7,21.8 90.5,20.6 C91.1,19.9 91.5,18.9 91.9,17.6 L97,17.6 C96.6,20.4 95.4,22.6 93.6,24.3 C91.8,26 89.4,26.9 86.6,26.9 C82.9,26.9 80.1,25.6 78,23.3 C76,21 75,17.8 75,13.7 C75,9.3 76,6 78.5,3.7 Z M139.6,1 L145.1,1 L155.1,18.6 L155.1,1 L160.1,1 L160.1,26.2 L154.9,26.2 L144.5,8.4 L144.5,26.2 L139.5,26.2 L139.5,1.2 L139.6,1 Z M179,1 L184.4,1 L175.8,26.2 L170.8,26.2 L162.4,1.2 L168,1.2 L173.4,20.2 L179,1 Z M204.7,5.5 L191.4,5.5 L191.4,11 L203.6,11 L203.6,15 L191.4,15 L191.4,21.5 L205.4,21.5 L205.4,26 L186.4,26 L186.4,1 L204.7,1 L204.7,5.3 L204.7,5.5 Z M224,1.7 C225,2.1 225.8,2.7 226.5,3.5 C227,4.1 227.5,4.8 227.8,5.5 C228.1,6.2 228.2,7.2 228.2,8.2 C228.2,9.4 227.9,10.6 227.2,11.7 C226.7,12.9 225.7,13.7 224.2,14.2 C225.5,14.7 226.2,15.2 226.8,16.2 C227.3,17 227.5,18.4 227.5,20.2 L227.5,21.8 C227.5,22.8 227.5,23.8 227.7,24.1 C227.7,24.9 228.1,25.4 228.7,25.7 L228.7,26.3 L222.7,26.3 C222.7,25.7 222.7,25.3 222.5,25 L222.3,22.7 L222.3,20.3 C222.3,18.7 221.9,17.7 221.3,17.1 C220.9,16.7 219.9,16.4 218.3,16.4 L213.3,16.4 L213.3,26.4 L208.3,26.4 L208.3,1 L220.3,1 C221.9,1 223.3,1.3 224.1,1.7 L224,1.7 Z M213.3,5.4 L213.3,12.2 L218.9,12.2 C219.9,12.2 220.9,12 221.4,11.8 C222.4,11.3 222.8,10.4 222.8,8.8 C222.8,7.4 222.3,6.4 221.3,5.8 C220.8,5.6 220,5.4 218.9,5.4 L213.2,5.4 L213.3,5.4 Z M235.6,18.4 C235.8,19.6 236.1,20.4 236.6,21 C237.6,22 239,22.6 241.1,22.6 C242.4,22.6 243.5,22.4 244.3,22.2 C245.8,21.6 246.5,20.7 246.5,19.2 C246.5,18.4 246.1,17.8 245.5,17.2 C244.7,16.9 243.5,16.5 241.9,16.2 L239.2,15.5 C236.6,14.9 234.8,14.3 233.8,13.5 C232.1,12.5 231.2,10.5 231.2,8.2 C231.2,5.9 232.2,4.2 233.7,2.6 C235.4,1.1 237.7,0.3 241,0.3 C243.7,0.3 246,1 248,2.3 C249.8,3.8 250.8,5.9 251,8.5 L245.8,8.5 C245.8,7 245,6 243.8,5.3 C242.8,4.9 241.8,4.7 240.8,4.7 C239.3,4.7 238.2,5 237.3,5.5 C236.6,6.1 236.3,6.8 236.3,7.8 C236.3,8.8 236.6,9.4 237.3,9.8 C237.9,10.1 239.1,10.5 240.8,10.8 L245.2,11.8 C247,12.3 248.5,13 249.4,13.8 C250.9,14.8 251.7,16.6 251.7,18.8 C251.7,21.1 250.7,23.1 249,24.6 C247.2,26.1 244.7,26.8 241.5,26.8 C238.2,26.8 235.5,26.1 233.7,24.6 C231.7,23.1 230.7,21.1 230.7,18.4 L235.7,18.4 L235.6,18.4 Z M261,1 L267,1 L275.8,26.2 L270,26.2 L268.4,21 L259.2,21 L257.5,26.2 L252,26.2 L261,1.2 L261,1 Z M260.6,16.7 L267,16.7 L264,6.7 L260.6,16.7 Z M292.6,1 L292.6,5.5 L285,5.5 L285,26.2 L279.8,26.2 L279.8,5.5 L272.2,5.5 L272.2,1 L292.6,1 Z M300.4,26.2 L295.2,26.2 L295.2,1.2 L300.4,1.2 L300.4,26.2 Z M324,24 C322,26 319.3,27 315.8,27 C312.2,27 309.4,26 307.5,24 C305,21.6 303.7,18 303.7,13.6 C303.7,9 305,5.6 307.5,3.2 C309.5,1.2 312.2,0.2 315.8,0.2 C319.3,0.2 322.1,1.2 324,3.2 C326.5,5.5 327.8,9 327.8,13.6 C327.8,18.1 326.5,21.6 324,24 Z M320.7,20 C321.9,18.6 322.5,16.4 322.5,13.6 C322.5,10.8 321.9,8.6 320.7,7.1 C319.5,5.6 317.7,4.8 315.7,4.8 C313.7,4.8 312,5.6 310.7,7.1 C309.5,8.7 308.9,10.9 308.9,13.7 C308.9,16.5 309.4,18.7 310.7,20.2 C311.9,21.9 313.7,22.6 315.7,22.6 C317.7,22.6 319.4,21.9 320.7,20.3 L320.7,20 Z M329.6,1 L335.1,1 L345.1,18.6 L345.1,1 L350.1,1 L350.1,26.2 L344.8,26.2 L334.5,8.4 L334.5,26.2 L329.5,26.2 L329.5,1.2 L329.6,1 Z" id="Shape"></path>
            </g>
            <path d="M122.7,0 L113.3,0 C106,0 100,6 100,13.3 L100,13.8 C100,16.4 100.8,18.8 102.2,21 L95.2,27.6 L105.4,24.4 C107.6,26.1 110.4,27 113.4,27 L122.7,27 C130.1,27 136,21 136,13.8 L136,13.3 C136,6 130,0 122.7,0 Z M129.9,15 C129.9,19 126.7,22 122.7,22 L113.1,22 C109.1,22 106.1,19 106.1,15 L106.1,12 C106.1,8 109.1,5 113.1,5 L122.7,5 C126.7,5 129.7,8 129.7,12 L129.7,15 L129.9,15 Z" id="Shape" fill="#D8352A"></path>
        </g>
    </g>
</svg>